<?xml version="1.0" encoding="UTF-8" standalone="no"?>
<!-- Created with Inkscape (http://www.inkscape.org/) -->

<svg
   xmlns:dc="http://purl.org/dc/elements/1.1/"
   xmlns:cc="http://creativecommons.org/ns#"
   xmlns:rdf="http://www.w3.org/1999/02/22-rdf-syntax-ns#"
   xmlns:svg="http://www.w3.org/2000/svg"
   xmlns="http://www.w3.org/2000/svg"
   xmlns:sodipodi="http://sodipodi.sourceforge.net/DTD/sodipodi-0.dtd"
   xmlns:inkscape="http://www.inkscape.org/namespaces/inkscape"
   id="svg2"
   version="1.1"
   inkscape:version="0.48.4 r9939"
   width="202"
   height="202"
   sodipodi:docname="AppTileIcon.svg"
   inkscape:export-filename="C:\Users\bill\SkyDrive\Projects\apps\medicare-hospitals\medicare-hospitals\Assets\Tiles\IconicTileMediumLarge.png"
   inkscape:export-xdpi="90"
   inkscape:export-ydpi="90">
  <metadata
     id="metadata8">
    <rdf:RDF>
      <cc:Work
         rdf:about="">
        <dc:format>image/svg+xml</dc:format>
        <dc:type
           rdf:resource="http://purl.org/dc/dcmitype/StillImage" />
        <dc:title />
      </cc:Work>
    </rdf:RDF>
  </metadata>
  <defs
     id="defs6" />
  <sodipodi:namedview
     pagecolor="#ffffff"
     bordercolor="#666666"
     borderopacity="1"
     objecttolerance="10"
     gridtolerance="10"
     guidetolerance="10"
     inkscape:pageopacity="0"
     inkscape:pageshadow="2"
     inkscape:window-width="1920"
     inkscape:window-height="1017"
     id="namedview4"
     showgrid="false"
     inkscape:zoom="3.304499"
     inkscape:cx="27.821424"
     inkscape:cy="107.81017"
     inkscape:window-x="-8"
     inkscape:window-y="-8"
     inkscape:window-maximized="1"
     inkscape:current-layer="layer2" />
  <g
     inkscape:groupmode="layer"
     id="layer1"
     inkscape:label="Layer">
    <rect
       style="fill:#800033;fill-opacity:1;stroke:none"
       id="rect3024"
       width="200"
       height="200"
       x="1"
       y="1" />
  </g>
  <g
     inkscape:groupmode="layer"
     id="layer2"
     inkscape:label="Layer#1">
    <g
       id="g3803"
       transform="matrix(0.61787346,0,0,0.61787346,60.051498,69.305336)">
      <path
         inkscape:connector-curvature="0"
         d="m 6.7732818,80.624523 118.9999982,0 0,11 -118.9999982,0 z m 0,-39.75 118.9999982,0 0,11 -118.9999982,0 z m 0,-39.7499986 118.9999982,0 0,10.9999996 -118.9999982,0 z M -21.663055,-52.781726 c -3.272535,0 -5.924029,2.59962 -5.907373,5.82832 l 1.091579,211.593356 c 0.01665,3.2287 2.634839,5.82832 5.907373,5.82832 l 174.781176,0 c 3.27253,0 5.90737,-2.59958 5.90737,-5.82832 l 0,-211.593356 c 0,-3.228741 -2.63484,-5.82832 -5.90737,-5.82832 l -19.48808,0.08959 0.0908,20.303002 -135.9712452,-0.473273 -0.05319,-19.919323 z"
         style="fill:#ffffff;fill-opacity:1;stroke:none"
         id="rect3928-5" />
      <rect
         y="-67.875534"
         x="6.2053576"
         height="29"
         width="120.13585"
         id="rect3968"
         style="fill:#ffffff;fill-opacity:1;stroke:none" />
    </g>
  </g>
</svg>
